<svg width="25" height="25" viewBox="0 0 25 25" fill="none" xmlns="http://www.w3.org/2000/svg">
<path fill-rule="evenodd" clip-rule="evenodd" d="M3.96447 16.426C4.90215 15.4883 6.17392 14.9615 7.5 14.9615H12C12.5523 14.9615 13 15.4093 13 15.9615C13 16.5138 12.5523 16.9615 12 16.9615H7.5C6.70435 16.9615 5.94129 17.2776 5.37868 17.8402C4.81607 18.4028 4.5 19.1659 4.5 19.9615V21.9615C4.5 22.5138 4.05228 22.9615 3.5 22.9615C2.94772 22.9615 2.5 22.5138 2.5 21.9615V19.9615C2.5 18.6355 3.02678 17.3637 3.96447 16.426Z" fill="white"/>
<path fill-rule="evenodd" clip-rule="evenodd" d="M18.1669 13.8764C18.7528 13.2905 19.5474 12.9614 20.376 12.9614C21.2046 12.9614 21.9992 13.2905 22.5851 13.8764C23.171 14.4623 23.5001 15.257 23.5001 16.0855C23.5001 16.9141 23.171 17.7088 22.5851 18.2947L18.5723 22.3035C18.2159 22.6598 17.775 22.9212 17.2913 23.0625L14.421 23.8995C14.421 23.8995 14.421 23.8995 14.421 23.8995C14.1628 23.9748 13.8892 23.9793 13.6287 23.9126C13.3682 23.8459 13.1305 23.7103 12.9403 23.5202C12.7502 23.3301 12.6146 23.0923 12.5479 22.8318C12.4812 22.5713 12.4857 22.2977 12.561 22.0396C12.561 22.0396 12.561 22.0396 12.561 22.0396L13.398 19.1696C13.5393 18.6857 13.8003 18.245 14.1567 17.8886L18.1669 13.8764ZM19.5812 15.2905L15.5713 19.3025C15.4525 19.4212 15.3651 19.5683 15.318 19.7295M15.318 19.7295L14.7362 21.7243L16.7307 21.1426C16.7306 21.1427 16.7308 21.1426 16.7307 21.1426C16.8919 21.0955 17.0389 21.0084 17.1577 20.8896L21.1709 16.8804C21.3815 16.6697 21.5001 16.3835 21.5001 16.0855C21.5001 15.7874 21.3817 15.5015 21.1709 15.2907C20.9601 15.0798 20.6741 14.9614 20.376 14.9614C20.0779 14.9614 19.792 15.0798 19.5812 15.2905" fill="white"/>
<path fill-rule="evenodd" clip-rule="evenodd" d="M10.5 4.96155C8.84315 4.96155 7.5 6.30469 7.5 7.96155C7.5 9.6184 8.84315 10.9615 10.5 10.9615C12.1569 10.9615 13.5 9.6184 13.5 7.96155C13.5 6.30469 12.1569 4.96155 10.5 4.96155ZM5.5 7.96155C5.5 5.20012 7.73858 2.96155 10.5 2.96155C13.2614 2.96155 15.5 5.20012 15.5 7.96155C15.5 10.723 13.2614 12.9615 10.5 12.9615C7.73858 12.9615 5.5 10.723 5.5 7.96155Z" fill="white"/>
</svg>
